<?xml version="1.0" encoding="UTF-8" standalone="no"?>
<svg
   viewBox="0 0 2866.2068 717.72168"
   width="2866.2068"
   height="717.72168"
   aria-labelledby="title desc"
   role="img"
   preserveAspectRatio="xMidYMid"
   version="1.1"
   id="svg40"
   sodipodi:docname="logoplanetatextdreta.svg"
   inkscape:version="1.4.2 (f4327f4, 2025-05-13)"
   xmlns:inkscape="http://www.inkscape.org/namespaces/inkscape"
   xmlns:sodipodi="http://sodipodi.sourceforge.net/DTD/sodipodi-0.dtd"
   xmlns:xlink="http://www.w3.org/1999/xlink"
   xmlns="http://www.w3.org/2000/svg"
   xmlns:svg="http://www.w3.org/2000/svg"
   xmlns:rdf="http://www.w3.org/1999/02/22-rdf-syntax-ns#"
   xmlns:cc="http://creativecommons.org/ns#"
   xmlns:dc="http://purl.org/dc/elements/1.1/">
  <sodipodi:namedview
     id="namedview39"
     pagecolor="#ffffff"
     bordercolor="#000000"
     borderopacity="0.25"
     inkscape:showpageshadow="2"
     inkscape:pageopacity="0.0"
     inkscape:pagecheckerboard="0"
     inkscape:deskcolor="#d1d1d1"
     inkscape:zoom="0.26689138"
     inkscape:cx="1547.446"
     inkscape:cy="91.797644"
     inkscape:window-width="1920"
     inkscape:window-height="991"
     inkscape:window-x="-9"
     inkscape:window-y="-9"
     inkscape:window-maximized="1"
     inkscape:current-layer="svg40" />
  <title
     id="title">Òrbita Events — símbolo + wordmark</title>
  <desc
     id="desc">Planeta naranja con anillo ámbar, satélite magenta metálico y el wordmark “Òrbita / EVENTS” centrado abajo.</desc>
  <!-- FONDO -->
  <defs
     id="defs30">
    <!-- Gradientes del planeta -->
    <radialGradient
       id="g-planet-core"
       cx="440"
       cy="300"
       r="268"
       gradientUnits="userSpaceOnUse"
       gradientTransform="translate(-125.02204,-83.410153)">
      <stop
         offset="0%"
         stop-color="#FFF1C4"
         id="stop1" />
      <stop
         offset="26%"
         stop-color="#FFC069"
         id="stop2" />
      <stop
         offset="56%"
         stop-color="#FF7A2E"
         id="stop3" />
      <stop
         offset="100%"
         stop-color="#5E0022"
         id="stop4" />
    </radialGradient>
    <radialGradient
       id="g-terminator"
       cx="612"
       cy="468"
       r="300"
       gradientUnits="userSpaceOnUse"
       gradientTransform="matrix(0.845,0,0,0.845,-130.02204,-101.41015)">
      <stop
         offset="52%"
         stop-color="#000"
         stop-opacity="0"
         id="stop5" />
      <stop
         offset="100%"
         stop-color="#200015"
         stop-opacity=".58"
         id="stop6" />
    </radialGradient>
    <radialGradient
       id="g-planet-spec"
       cx="390"
       cy="252"
       r="205"
       gradientUnits="userSpaceOnUse"
       gradientTransform="translate(-125.02204,-83.410153)">
      <stop
         offset="0%"
         stop-color="#FFF"
         stop-opacity=".20"
         id="stop7" />
      <stop
         offset="55%"
         stop-color="#FFF"
         stop-opacity=".08"
         id="stop8" />
      <stop
         offset="100%"
         stop-color="#FFF"
         stop-opacity="0"
         id="stop9" />
    </radialGradient>
    <!-- Anillo -->
    <linearGradient
       id="grad_ring_fill"
       x1="90.839996"
       y1="261.72"
       x2="622.20001"
       y2="261.72"
       gradientTransform="scale(1.4360915,0.69633445)"
       gradientUnits="userSpaceOnUse">
      <stop
         offset="0%"
         stop-color="#FFC24D"
         id="stop10" />
      <stop
         offset="32%"
         stop-color="#FFA33A"
         id="stop11" />
      <stop
         offset="66%"
         stop-color="#E27600"
         id="stop12" />
      <stop
         offset="100%"
         stop-color="#A34700"
         id="stop13" />
    </linearGradient>
    <linearGradient
       id="g-ring-bevel"
       x1="0"
       y1="0"
       x2="0"
       y2="1024"
       gradientUnits="userSpaceOnUse"
       gradientTransform="rotate(-28,512,420)">
      <stop
         offset="0%"
         stop-color="#FFF6CA"
         stop-opacity=".65"
         id="stop14" />
      <stop
         offset="22%"
         stop-color="#FFE189"
         stop-opacity=".42"
         id="stop15" />
      <stop
         offset="55%"
         stop-color="#F3B350"
         stop-opacity=".30"
         id="stop16" />
      <stop
         offset="100%"
         stop-color="#552100"
         stop-opacity=".25"
         id="stop17" />
    </linearGradient>
    <linearGradient
       id="g-edge-top"
       x1="90.209999"
       y1="259.73999"
       x2="90.209999"
       y2="793.44"
       gradientTransform="scale(1.43,0.697)"
       gradientUnits="userSpaceOnUse">
      <stop
         offset="0%"
         stop-color="#FFE9A6"
         id="stop18" />
      <stop
         offset="60%"
         stop-color="#FFE9A6"
         stop-opacity="0"
         id="stop19" />
    </linearGradient>
    <linearGradient
       id="g-edge-bottom"
       x1="90.099998"
       y1="259.38"
       x2="90.099998"
       y2="793.51001"
       gradientTransform="scale(1.43,0.6976)"
       gradientUnits="userSpaceOnUse">
      <stop
         offset="42%"
         stop-color="#000"
         stop-opacity="0"
         id="stop20" />
      <stop
         offset="100%"
         stop-color="#421400"
         stop-opacity=".45"
         id="stop21" />
    </linearGradient>
    <linearGradient
       id="g-inner-shade"
       x1="90.839996"
       y1="261.72"
       x2="90.839996"
       y2="793.08002"
       gradientTransform="scale(1.4360915,0.69633445)"
       gradientUnits="userSpaceOnUse">
      <stop
         offset="0%"
         stop-color="#000"
         stop-opacity="0"
         id="stop22" />
      <stop
         offset="100%"
         stop-color="#732700"
         stop-opacity=".25"
         id="stop23" />
    </linearGradient>
    <path
       id="ring-shape"
       d="m 694.688,182.251 c 0.448,0.442 0.894,0.885 1.338,1.33 20.426,0.556 37.188,2.806 61.852,6.313 34.946,4.968 110.162,26.3 73.771,83.732 -14.574,23.001 -37.28,46.722 -60.116,65.534 -38.699,31.881 -84.617,55.921 -115.698,71.618 -124.536,61.878 -272.372,94.2 -374.076,77.256 -25.727,-4.286 -48.502,-11.725 -67.201,-22.635 -44.242,-21.963 -50.403,-70.274 2.998,-124.578 11.512,-12.971 25.751,-25.423 42.367,-37.262 0.441,-1.746 0.9,-3.487 1.377,-5.223 -24.946,13.526 -46.008,27.091 -61.51,39.955 -58.158,48.263 -109.643,126.543 -23.766,177.955 37.326,22.346 91.35,34.074 153.068,35.787 105.292,2.923 232.981,-23.301 338.371,-75.668 33.856,-16.823 67.833,-35.895 99.459,-57.977 42.191,-29.458 80.199,-64.273 108.162,-106.244 41.191,-61.825 11.476,-111.074 -69.537,-121.809 -41.519,-5.502 -74.875,-7.934 -106.01,-8.082 -1.622,-0.008 -3.238,-0.009 -4.849,-0.004 z" />
    <mask
       id="mask_outside_planet"
       maskUnits="userSpaceOnUse">
      <rect
         width="1024"
         height="1024"
         fill="#ffffff"
         id="rect23"
         x="0"
         y="0" />
      <circle
         cx="512"
         cy="380"
         r="260"
         fill="#000000"
         id="circle23" />
    </mask>
    <filter
       id="f-under-blur"
       x="-0.0071226183"
       y="-0.014702413"
       width="1.0142237"
       height="1.0294056">
      <feGaussianBlur
         stdDeviation="1.6"
         id="feGaussianBlur23" />
    </filter>
    <!-- Satélite -->
    <radialGradient
       id="g-sat-metal"
       cx="-17.200001"
       cy="-17.200001"
       r="77.400002"
       gradientUnits="userSpaceOnUse"
       gradientTransform="translate(669.97797,106.58984)">
      <stop
         offset="0%"
         stop-color="#FFE2F1"
         stop-opacity=".92"
         id="stop24" />
      <stop
         offset="22%"
         stop-color="#E83D7A"
         id="stop25" />
      <stop
         offset="68%"
         stop-color="#8C1047"
         id="stop26" />
      <stop
         offset="100%"
         stop-color="#2A021B"
         id="stop27" />
    </radialGradient>
    <radialGradient
       id="g-sat-spec"
       cx="790"
       cy="158"
       r="36"
       gradientUnits="userSpaceOnUse"
       gradientTransform="matrix(2.4050659,0,0,2.4050659,-1273.195,-316.41693)">
      <stop
         offset="0%"
         stop-color="#FFFFFF"
         stop-opacity=".85"
         id="stop28" />
      <stop
         offset="65%"
         stop-color="#FFFFFF"
         stop-opacity=".18"
         id="stop29" />
      <stop
         offset="100%"
         stop-color="#FFFFFF"
         stop-opacity="0"
         id="stop30" />
    </radialGradient>
    <filter
       id="f-soft-shadow"
       x="-0.065934066"
       y="-0.33333333"
       width="1.1318681"
       height="1.6666667">
      <feGaussianBlur
         stdDeviation="10"
         id="feGaussianBlur30" />
    </filter>
  </defs>
  <!-- Sombra bajo el planeta -->
  <!-- Planeta -->
  <!-- Anillo -->
  <!-- Satélite -->
  <g
     id="g1"
     transform="translate(328,62.5)">
    <circle
       cx="386.97797"
       cy="296.58984"
       r="260"
       fill="url(#g-planet-core)"
       id="circle30"
       style="fill:url(#g-planet-core)" />
    <circle
       cx="386.97797"
       cy="295.68283"
       r="259.55099"
       fill="url(#g-terminator)"
       opacity="0.28"
       id="circle31"
       style="fill:url(#g-terminator)" />
    <circle
       cx="386.97797"
       cy="296.58984"
       r="260"
       fill="url(#g-planet-spec)"
       opacity="0.22"
       id="circle32"
       style="fill:url(#g-planet-spec)" />
    <use
       xlink:href="#ring-shape"
       mask="url(#mask_outside_planet)"
       fill="url(#grad_ring_fill)"
       opacity="0.28"
       id="use32"
       style="fill:url(#grad_ring_fill)"
       transform="translate(-125.02204,-83.410153)" />
    <use
       xlink:href="#ring-shape"
       fill="url(#grad_ring_fill)"
       opacity="0.82"
       stroke="#000000"
       stroke-opacity="0.06"
       stroke-width="0.6"
       vector-effect="non-scaling-stroke"
       stroke-linejoin="round"
       id="use33"
       style="fill:url(#grad_ring_fill)"
       transform="translate(-125.02204,-83.410153)" />
    <use
       xlink:href="#ring-shape"
       fill="url(#g-inner-shade)"
       opacity="0.3"
       id="use34"
       style="fill:url(#g-inner-shade)"
       transform="translate(-125.02204,-83.410153)" />
    <use
       xlink:href="#ring-shape"
       fill="url(#g-ring-bevel)"
       opacity="0.5"
       style="mix-blend-mode:overlay;fill:url(#g-ring-bevel)"
       id="use35"
       transform="translate(-125.02204,-83.410153)" />
    <use
       xlink:href="#ring-shape"
       fill="none"
       stroke="url(#g-edge-top)"
       stroke-width="2.1"
       opacity="0.55"
       id="use36"
       style="stroke:url(#g-edge-top)"
       transform="translate(-125.02204,-83.410153)" />
    <use
       xlink:href="#ring-shape"
       fill="none"
       stroke="url(#g-edge-bottom)"
       stroke-width="2.4"
       opacity="0.42"
       id="use37"
       style="stroke:url(#g-edge-bottom)"
       transform="translate(-125.02204,-83.410153)" />
    <use
       xlink:href="#ring-shape"
       fill="none"
       stroke="#000000"
       stroke-width="3.2"
       opacity="0.1"
       filter="url(#f-under-blur)"
       id="use38"
       transform="translate(-125.02204,-83.410153)" />
    <circle
       r="43"
       cx="669.97797"
       cy="106.58984"
       fill="url(#g-sat-metal)"
       id="circle38"
       style="fill:url(#g-sat-metal)" />
    <circle
       r="43.291"
       cx="670.09796"
       cy="106.87485"
       fill="url(#g-sat-spec)"
       id="circle39"
       style="fill:url(#g-sat-spec)" />
  </g>
  <!-- WORDMARK: centrado bajo el planeta, color #F8F3EE -->
  <!-- Escala y posición ya ajustadas para aire respecto al anillo -->
  <path
     id="logotype"
     d="m 2612.784,716.65145 c -10.0845,-2.13972 -17.9813,-6.15722 -30.5871,-15.56121 l -10.0623,-7.50639 10.6204,-7.43955 c 5.8412,-4.09171 10.9562,-7.43952 11.367,-7.43952 0.4107,0 3.572,2.58209 7.025,5.73794 13.9077,12.71032 38.4042,14.5632 49.243,3.72462 12.0452,-12.04529 4.3165,-29.40726 -16.4227,-36.89299 -34.394,-12.41426 -48.1726,-23.07748 -51.7738,-40.06799 -3.6158,-17.05978 2.08,-33.02342 15.1654,-42.50232 10.5826,-7.66603 20.5004,-9.99794 38.5273,-9.05873 15.7376,0.81993 26.5564,5.0807 39.4276,15.52784 l 5.3264,4.32306 -10.3656,7.82617 c -9.0996,6.87014 -10.6612,7.47043 -12.7827,4.91387 -4.9852,-6.0065 -16.5442,-10.21849 -28.0433,-10.21849 -9.3964,0 -12.2901,0.8287 -17.1378,4.9081 -4.8567,4.0866 -5.8332,6.27959 -5.8332,13.10225 0,10.79064 5.5359,15.45354 29.2602,24.6459 30.3573,11.76259 39.9341,20.14667 44.7094,39.14079 4.9796,19.80791 -5.4069,40.54367 -24.4,48.71448 -10.6987,4.60245 -31.6096,6.59486 -43.2632,4.12217 z m -965.5927,-78.23293 -4e-4,-77.25483 h 47.3956 47.3956 v 12.32287 12.32285 h -34.1249 -34.1248 v 20.85409 20.85403 h 29.3852 29.3855 v 11.37496 11.37495 h -29.3855 -29.3852 v 20.85405 20.85405 h 35.1632 35.1631 l -0.5643,11.52235 -0.5643,11.52228 -47.8693,0.32659 -47.8693,0.32657 z m 230.5209,76.3069 -13.0919,-0.94791 -28.1206,-74.88502 c -15.4663,-41.18676 -28.1304,-75.56225 -28.1421,-76.38997 0,-0.82766 6.0378,-1.25424 13.444,-0.94789 l 13.4659,0.55699 21.928,60.39275 21.9278,60.39271 21.955,-60.86316 21.955,-60.86319 13.7444,-0.004 c 7.5599,-9.2e-4 13.745,0.26445 13.745,0.59199 0,2.0899 -57.2497,152.12982 -58.3508,152.92564 -0.7522,0.54364 -7.2589,0.56189 -14.4597,0.0405 z m 142.3234,0.63323 c -0.1739,-0.17314 -0.082,-34.93772 0.2019,-77.25482 l 0.5159,-76.94013 h 47.1854 47.1855 l 0.6423,11.53903 c 0.3531,6.34646 0.2867,11.89176 -0.1483,12.32286 -0.4344,0.43112 -16.0038,0.78382 -34.5988,0.78382 h -33.8083 v 20.85409 20.85403 h 29.3855 29.3851 v 11.37496 11.37495 h -29.3851 -29.3855 v 20.85405 20.85405 h 35.073 35.0727 l -4e-4,11.84892 -10e-5,11.84888 h -48.5019 c -26.6758,0 -48.6436,-0.14155 -48.8169,-0.31468 z m 191.6367,-0.24589 -12.7968,-0.56057 v -76.69424 -76.69426 l 12.7968,0.0553 12.797,0.0553 7.7666,10.8457 c 4.2714,5.96518 20.1601,28.33469 35.3084,49.71011 15.1481,21.37542 29.3807,40.99721 31.6279,43.60394 l 4.0858,4.73958 -0.2556,-5.68748 c -0.1418,-3.1281 -0.1675,-27.65535 -0.057,-54.50493 l 0.202,-48.81747 h 12.3228 12.3227 v 77.25484 77.2548 l -12.7962,-0.94792 -12.7966,-0.94791 -37.9185,-52.73326 -37.9185,-52.73321 -0.948,53.68115 -0.9477,53.68116 z m 236.3464,-0.22933 c -0.4348,-0.43445 -0.7902,-29.65383 -0.7902,-64.93195 v -64.14204 h -23.6977 -23.698 V 573.4866 561.16373 h 60.6664 60.6663 v 12.32287 12.32284 h -23.6978 -23.6978 v 64.93194 64.93198 h -12.4807 c -6.8644,0 -12.8362,-0.35546 -13.2705,-0.78993 z M 2142.9489,447.40411 c -24.0656,-3.34071 -42.1757,-12.3588 -60.1926,-29.97355 l -10.901,-10.65776 v 16.52912 16.5291 h -31.2811 -31.2811 V 261.14965 82.468334 h 33.2223 33.2226 l -0.5194,67.776456 c -0.2855,37.27703 -0.2064,67.77612 0.1763,67.7757 0.3818,-4.4e-4 5.5475,-4.49401 11.4791,-9.98566 20.1835,-18.68635 47.0707,-28.48557 77.8777,-28.38303 31.8805,0.10614 58.3753,10.30252 80.4655,30.96661 28.2155,26.39421 40.7885,63.46806 38.43,113.31831 -1.851,39.13026 -13.0728,66.9592 -36.4856,90.48023 -14.4511,14.51836 -32.6841,24.98391 -52.0765,29.89174 -14.1403,3.57849 -38.3156,5.01387 -52.1354,3.09542 z m 25.5405,-59.86805 c 35.135,-10.43401 55.5742,-46.69734 49.4829,-87.79201 -5.3357,-35.99772 -26.7435,-58.95947 -60.5151,-64.90823 -29.0785,-5.12205 -60.9581,10.2583 -73.9179,35.66154 -11.5157,22.57242 -13.0536,55.63797 -3.5713,76.77612 5.3595,11.94725 17.6336,26.33023 28.143,32.97843 15.7355,9.95407 41.088,13.0127 60.3784,7.28415 z m -594.2879,58.63151 c -68.3671,-10.86471 -118.948,-54.64074 -139.9004,-121.07871 -7.1826,-22.77557 -9.5355,-43.06877 -8.4186,-72.61034 2.6867,-71.06424 37.1457,-126.0892 97.1319,-155.102048 28.2997,-13.687489 42.0484,-16.557993 79.6246,-16.624443 35.4193,-0.0625 51.5572,2.89417 75.8065,13.889345 66.6622,30.226006 107.5931,101.945486 102.7615,180.059046 -3.2547,52.61903 -21.959,93.84662 -57.7825,127.36307 -22.6817,21.22086 -45.4197,33.32586 -76.3063,40.62329 -13.8676,3.27642 -60.2655,5.49129 -72.9167,3.48079 z m 55.7505,-62.33875 c 37.0432,-8.73172 65.9055,-39.45963 77.3908,-82.3929 4.5758,-17.10499 4.5705,-58.76167 -0.015,-75.83294 -13.9325,-51.92807 -53.0948,-83.41623 -103.7465,-83.41623 -29.7501,0 -53.5269,9.7362 -73.9372,30.27597 -21.9215,22.06058 -32.0185,47.451 -33.6214,84.54593 -1.8656,43.17447 9.0633,75.33219 34.0526,100.19674 20.8323,20.72837 41.496,29.20901 71.6102,29.38977 8.8629,0.0532 21.5804,-1.19164 28.2609,-2.76634 z m 1077.9521,62.45748 c -2.0855,-0.44282 -8.4838,-1.75258 -14.2187,-2.91062 -13.1639,-2.65819 -30.1328,-11.13994 -39.85,-19.9188 -4.1295,-3.73108 -10.2556,-12.36372 -13.6131,-19.18373 -5.2276,-10.61858 -6.2145,-14.91858 -6.8715,-29.93285 -0.8802,-20.13085 2.0609,-31.76611 11.2289,-44.42236 11.4434,-15.79693 39.3647,-29.0616 71.6153,-34.02214 13.7743,-2.11868 72.7414,-7.70262 81.5362,-7.72113 4.4268,-0.0114 4.4973,-0.28159 3.6212,-13.93549 -1.4963,-23.3135 -11.0316,-35.64762 -32.4846,-42.01836 -21.3785,-6.34881 -44.4792,-1.79918 -57.6283,11.34974 -4.5703,4.57051 -8.5835,10.64413 -9.2564,14.00887 l -1.1882,5.94 h -29.3149 -29.3151 l 1.3309,-8.05725 c 7.641,-46.25854 42.9968,-73.49251 99.4812,-76.62856 64.5922,-3.58619 109.8105,24.53476 120.493,74.93372 2.07,9.76713 2.6771,32.07421 2.7027,99.32975 l 0.034,86.73393 h -30.3335 -30.3329 v -14.3657 -14.36566 l -9.9533,8.7572 c -11.7732,10.35873 -28.3153,18.85655 -44.0778,22.64308 -12.1741,2.92456 -37.3622,5.11181 -43.604,3.78636 z m 57.512,-54.81199 c 22.5101,-10.10181 36.3314,-30.88565 36.3314,-54.63288 v -9.40602 l -19.4325,1.28835 c -48.3867,3.20799 -68.1746,7.72489 -77.7324,17.74342 -17.3072,18.14215 -8.1943,43.17389 18.1854,49.95214 11.2648,2.89451 30.0271,0.71903 42.6481,-4.94501 z m -234.7256,49.20973 c -20.8248,-5.79788 -35.9857,-18.7 -45.2893,-38.54196 l -4.9959,-10.65457 -0.5721,-77.25483 -0.5718,-77.25479 h -21.7042 -21.7035 v -26.54148 -26.54155 h 21.8836 21.8833 l -0.2581,-30.43296 -0.2583,-30.43295 h 31.6345 31.6342 l -0.2582,30.43295 -0.2584,30.43296 h 30.4148 30.4149 v 26.54155 26.54148 h -30.5214 -30.5209 l 0.7483,63.98404 c 0.7963,68.08814 1.3779,72.52688 10.5722,80.7137 5.7333,5.10481 26.1168,8.10082 39.1019,5.74716 l 10.6199,-1.92496 v 26.96378 c 0,23.85964 -0.3822,27.13186 -3.3178,28.4239 -1.8245,0.80307 -15.6879,1.73656 -30.807,2.07445 -20.4012,0.4559 -30.1663,-0.13107 -37.8707,-2.27592 z M 1825.3983,312.81085 V 185.79069 h 31.4428 31.4428 l -0.6356,12.32683 c -0.3496,6.77972 -0.44,12.32503 -0.2016,12.32286 0.2403,-9.3e-4 3.9738,-3.84311 8.299,-8.53534 14.7298,-15.98003 42.0222,-25.05782 67.5732,-22.47565 l 11.8488,1.19743 v 32.17004 c 0,29.90361 -0.2351,32.07208 -3.3177,30.78027 -6.5656,-2.75028 -32.628,-3.32135 -41.2615,-0.9041 -11.6293,3.25604 -24.5303,15.11062 -31.5264,28.96927 -7.7541,15.36123 -9.0912,30.99588 -9.1549,107.04843 l -0.052,61.14029 h -32.2291 -32.2288 z m 506.1849,0 V 185.79069 h 32.2288 32.2293 v 127.02016 127.02017 h -32.2293 -32.2288 z m 16.0361,-166.60432 c -26.2914,-11.94243 -29.169,-48.276186 -5.1288,-64.748938 7.7865,-5.335338 25.0771,-7.181943 35.3877,-3.779251 32.5338,10.73711 34.2053,55.934249 2.5576,69.157459 -9.3669,3.91371 -23.4078,3.64448 -32.8165,-0.62927 z M 1603.5456,57.010812 1585.4939,55.926791 1558.0457,36.146445 C 1534.3748,19.088174 1518.5342,7.2432509 1511.7342,1.5166949 1510.7435,0.6825219 1528.0146,9.065742e-7 1550.1141,9.065742e-7 h 40.1809 L 1610.3905,24.171746 c 11.0526,13.294461 21.7794,26.517823 23.8374,29.38527 l 3.742,5.213507 -8.1864,-0.337846 c -4.5023,-0.185603 -16.3096,-0.825676 -26.2379,-1.421865 z"
     style="fill:#ffffff;fill-opacity:1;stroke:none;stroke-width:2.58264" />
  <metadata
     id="metadata39">
    <rdf:RDF>
      <cc:Work
         rdf:about="">
        <dc:title>Òrbita Events — símbolo + wordmark</dc:title>
      </cc:Work>
    </rdf:RDF>
  </metadata>
</svg>
