<?xml version="1.0" encoding="UTF-8" standalone="no"?>
<!-- Created with Inkscape (http://www.inkscape.org/) -->

<svg
   version="1.1"
   id="svg1"
   width="1024"
   height="1024"
   viewBox="0 0 1024 1024"
   sodipodi:docname="Texto oficial Orbita events.svg"
   inkscape:version="1.4.2 (f4327f4, 2025-05-13)"
   xmlns:inkscape="http://www.inkscape.org/namespaces/inkscape"
   xmlns:sodipodi="http://sodipodi.sourceforge.net/DTD/sodipodi-0.dtd"
   xmlns="http://www.w3.org/2000/svg"
   xmlns:svg="http://www.w3.org/2000/svg">
  <defs
     id="defs1" />
  <sodipodi:namedview
     id="namedview1"
     pagecolor="#ffffff"
     bordercolor="#000000"
     borderopacity="0.25"
     inkscape:showpageshadow="2"
     inkscape:pageopacity="0.0"
     inkscape:pagecheckerboard="0"
     inkscape:deskcolor="#d1d1d1"
     inkscape:zoom="0.26689138"
     inkscape:cx="500.20349"
     inkscape:cy="702.533"
     inkscape:window-width="1920"
     inkscape:window-height="991"
     inkscape:window-x="-9"
     inkscape:window-y="-9"
     inkscape:window-maximized="1"
     inkscape:current-layer="g2" />
  <g
     inkscape:groupmode="layer"
     inkscape:label="Image"
     id="g1">
    <g
       id="g2"
       transform="translate(485.21612,26.227899)">
      <path
         style="fill:#000000"
         d="m 273.04725,674.4978 c -5.31934,-1.12866 -9.48468,-3.24778 -16.13393,-8.20815 l -5.30753,-3.95944 5.60193,-3.92417 c 3.08107,-2.15829 5.77919,-3.92417 5.99582,-3.92417 0.21663,0 1.88415,1.36198 3.70559,3.02661 7.33595,6.7044 20.25721,7.68174 25.9743,1.96466 6.35359,-6.3536 2.27696,-15.5116 -8.66258,-19.46015 -18.14196,-6.54821 -25.40977,-12.1728 -27.30933,-21.13485 -1.90731,-8.99862 1.09719,-17.41906 7.99932,-22.41894 5.58208,-4.04363 10.81349,-5.27366 20.3224,-4.77825 8.3011,0.43249 14.00771,2.67993 20.79706,8.19055 l 2.80945,2.28031 -5.46764,4.12811 c -4.79974,3.62383 -5.62339,3.94046 -6.74256,2.59194 -2.62944,-3.16828 -8.72664,-5.38999 -14.79214,-5.38999 -4.9563,0 -6.48258,0.43711 -9.03983,2.58889 -2.56176,2.15558 -3.07673,3.31233 -3.07673,6.91111 0,5.6918 2.92004,8.15136 15.43397,13.00011 16.01286,6.20448 21.06443,10.62686 23.5831,20.6458 2.62658,10.44818 -2.85185,21.38578 -12.87044,25.69567 -5.64334,2.4277 -16.67316,3.47864 -22.82023,2.17435 z m -509.32621,-41.26593 -1.9e-4,-40.75 h 25 25 v 6.5 6.5 h -18 -18 v 11 11 h 15.5 15.5 v 6 6 h -15.5 -15.5 v 11 11 h 18.54772 18.54771 l -0.29771,6.07774 -0.29772,6.07774 -25.24981,0.17226 -25.24981,0.17226 z m 121.59414,40.25 -6.90568,-0.5 -14.83294,-39.5 c -8.15812,-21.725 -14.83806,-39.85721 -14.84432,-40.29381 -0.006,-0.43659 3.18491,-0.66159 7.0915,-0.5 l 7.10289,0.29381 11.56645,31.85567 11.56644,31.85567 11.58067,-32.10382 11.580661,-32.10381 7.25,-0.002 c 3.9875,-10e-4 7.25,0.1395 7.25,0.31227 0,1.10238 -30.197791,80.2447 -30.778601,80.66448 -0.39677,0.28677 -3.82895,0.2964 -7.62707,0.0214 z m 75.072079,0.33401 c -0.0915,-0.0913 -0.044,-18.42879 0.10565,-40.75 l 0.27206,-40.58401 h 24.88912 24.88912 l 0.33882,6.08655 c 0.18635,3.3476 0.15132,6.2726 -0.0779,6.5 -0.22916,0.2274 -8.4416599,0.41345 -18.2499999,0.41345 H -25.279151 v 11 11 h 15.5000001 15.5 v 6 6 h -15.5 -15.5000001 v 11 11 H -6.7791509 11.720849 l -1.4e-4,6.25 -1.4e-4,6.25 h -25.58345 c -14.07089,0 -25.65833,-0.0747 -25.74986,-0.16599 z m 101.083592,-0.1297 -6.750002,-0.29569 v -40.45431 -40.45431 l 6.750002,0.0291 6.75,0.0292 4.09664,5.72085 c 2.25316,3.14647 10.63411,14.94585 18.62434,26.22085 7.99024,11.275 15.497559,21.625 16.682939,23 l 2.15524,2.5 -0.13554,-3 c -0.0746,-1.65 -0.0879,-14.5875 -0.0296,-28.75 l 0.10598,-25.75 h 6.5 6.5 l 8.9e-4,40.75 9e-4,40.75 -6.74979,-0.5 -6.74978,-0.5 -20.001109,-27.81549 -20.00111,-27.81548 -0.5,28.31548 -0.5,28.31549 z M 186.13752,673.5652 c -0.22917,-0.22916 -0.41667,-15.64166 -0.41667,-34.25 v -33.83333 h -12.5 -12.5 v -6.5 -6.5 h 32 32 v 6.5 6.5 h -12.5 -12.5 v 34.25 34.25 h -6.58333 c -3.62084,0 -6.77084,-0.1875 -7,-0.41667 z M 25.220849,532.47648 C 12.526829,530.71434 2.9742591,525.95752 -6.5291509,516.66617 l -5.7500001,-5.62169 v 8.71869 8.7187 h -16.5 -16.499998 v -94.25 -94.25 h 17.523968 17.52396 l -0.27396,35.75042 c -0.15069,19.66272 -0.10912,35.75022 0.0924,35.75 0.20149,-2.3e-4 2.9262801,-2.37046 6.0550801,-5.26718 10.64629,-9.85659 24.8286499,-15.02544 41.0785799,-14.97136 16.81614,0.056 30.791562,5.43433 42.443482,16.33413 14.883,13.92231 21.514979,33.47784 20.27103,59.7726 -0.97644,20.64025 -6.89567,35.31934 -19.24519,47.7261 -7.62273,7.65808 -17.24016,13.17839 -27.469322,15.76714 -7.45852,1.88757 -20.21037,2.64469 -27.5,1.63276 z m 13.47191,-31.57891 c 18.532932,-5.50369 29.314272,-24.63168 26.101182,-46.30811 -2.81457,-18.98792 -14.106582,-31.09967 -31.920262,-34.23749 -15.33813,-2.70176 -32.15396989,5.41099 -38.9899299,18.81058 -6.0741801,11.90639 -6.8854401,29.34765 -1.88368,40.49751 2.82699,6.30188 9.30127,13.88853 14.84477,17.3953 8.3000299,5.25053 21.6728999,6.86387 31.8479199,3.84221 z m -313.471909,30.92667 c -36.06192,-5.73086 -62.74216,-28.82164 -73.79399,-63.86603 -3.78867,-12.01353 -5.02974,-22.7177 -4.44063,-38.30014 1.41715,-37.48464 19.59344,-66.50894 51.23462,-81.81252 14.92742,-7.2198 22.17952,-8.73393 42,-8.76897 18.68284,-0.033 27.1951,1.5266 39.98601,7.32628 35.1626,15.94348 56.75271,53.77372 54.20418,94.9767 -1.71674,27.75524 -11.58278,49.50176 -30.47888,67.18087 -11.96401,11.19348 -23.95768,17.57857 -40.24969,21.42778 -7.31484,1.72823 -31.78843,2.89652 -38.46162,1.83603 z m 29.40693,-32.88215 c 19.53931,-4.60575 34.76351,-20.81397 40.8217,-43.46022 2.41363,-9.02246 2.41083,-30.99532 -0.005,-40 -7.34896,-27.39076 -28.00614,-44 -54.72363,-44 -15.69241,0 -28.23407,5.1356 -39,15.96983 -11.56305,11.63641 -16.88897,25.02923 -17.73445,44.59589 -0.98405,22.77347 4.78076,39.73587 17.96194,52.8513 10.98852,10.9337 21.88806,15.40702 37.77251,15.50239 4.675,0.0281 11.38312,-0.62857 14.90693,-1.45919 z m 568.59307,32.94479 c -1.1,-0.23358 -4.475,-0.92446 -7.5,-1.53529 -6.9437,-1.40212 -15.89437,-5.87605 -21.0199,-10.50666 -2.1784,-1.96806 -5.40971,-6.52158 -7.18068,-10.11894 -2.75739,-5.60105 -3.27806,-7.86919 -3.62444,-15.78886 -0.46442,-10.61851 1.08693,-16.75582 5.92291,-23.43169 6.03602,-8.33249 20.764,-15.32928 37.7753,-17.94584 7.26556,-1.11754 38.36932,-4.06294 43.00832,-4.07271 2.33498,-0.005 2.37229,-0.14853 1.91009,-7.35062 -0.78919,-12.29729 -5.81893,-18.80323 -17.13472,-22.16365 -11.27673,-3.34883 -23.46177,-0.94902 -30.3975,5.98671 -2.41083,2.41083 -4.52778,5.61453 -4.88274,7.38932 l -0.62664,3.13322 h -15.4629 -15.4629 l 0.70202,-4.25 c 4.03041,-24.40024 22.67971,-38.76549 52.47378,-40.41968 34.07083,-1.89164 57.92239,12.94148 63.55705,39.5257 1.09197,5.1519 1.41212,16.91835 1.42559,52.39398 l 0.0174,45.75 h -16 -16 v -7.57755 -7.57754 l -5.25,4.61921 c -6.21013,5.46397 -14.9357,9.94636 -23.25,11.94368 -6.42154,1.54263 -19.70768,2.69634 -23,1.99721 z m 30.33618,-28.91198 c 11.87339,-5.32846 19.16382,-16.29141 19.16382,-28.81749 v -4.96145 l -10.25,0.67957 c -25.52286,1.69214 -35.96069,4.0747 -41.00205,9.35922 -9.1292,9.56954 -4.32237,22.77316 9.59229,26.34853 5.94189,1.52677 15.83859,0.37926 22.49594,-2.60838 z m -123.81194,25.95692 c -10.98463,-3.05824 -18.9816,-9.86378 -23.88907,-20.32994 l -2.63517,-5.62001 -0.30178,-40.75 -0.30178,-40.75 h -11.44822 -11.44822 v -14 -14 h 11.54308 11.54309 l -0.13624,-16.05263 -0.13624,-16.05263 h 16.68631 16.68631 l -0.13624,16.05263 -0.13624,16.05263 h 16.04309 16.04308 v 14 14 h -16.0992 -16.0992 l 0.39476,33.75 c 0.42009,35.9148 0.72677,38.25613 5.57665,42.57447 3.02411,2.69267 13.77588,4.27297 20.62514,3.03149 l 5.60185,-1.01537 v 14.22272 c 0,12.58537 -0.20146,14.31138 -1.75,14.9929 -0.9625,0.4236 -8.275,0.916 -16.25,1.09422 -10.76107,0.24048 -15.91196,-0.0691 -19.97576,-1.20048 z m -372.02424,-67.44995 v -67 h 16.58533 16.58532 l -0.33532,6.5021 c -0.18443,3.57615 -0.2321,6.50115 -0.10593,6.5 0.12618,-10e-4 2.09602,-2.02713 4.37743,-4.50217 7.769651,-8.42907 22.165761,-13.2174 35.643171,-11.85537 l 6.25,0.63163 v 16.96889 c 0,15.77344 -0.12329,16.91725 -1.75,16.23585 -3.4633,-1.45071 -17.21042,-1.75193 -21.76442,-0.47689 -6.13424,1.71748 -12.93912,7.97047 -16.629251,15.28057 -4.09021,8.10266 -4.79553,16.34956 -4.82923,56.46539 l -0.0271,32.25 h -17 -17 z m 267,0 v -67 h 17 17 v 67 67 h -17 -17 z m 8.45863,-87.87966 c -13.86795,-6.29934 -15.38605,-25.4645 -2.70533,-34.15347 4.10715,-2.81426 13.22771,-3.7883 18.66613,-1.99346 17.16073,5.66355 18.04238,29.50394 1.34904,36.47886 -4.94076,2.06438 -12.34703,1.92236 -17.30984,-0.33193 z m -392.48046,-47.04855 -9.52182,-0.57179 -14.47818,-10.43364 c -12.48577,-8.99782 -20.84128,-15.24572 -24.42817,-18.26634 -0.5225,-0.44001 8.5875,-0.80002 20.24445,-0.80002 h 21.19444 l 10.59985,12.75 c 5.82991,7.0125 11.48805,13.9875 12.57365,15.5 l 1.9738,2.75 -4.3181,-0.17821 c -2.37495,-0.098 -8.60291,-0.43552 -13.83992,-0.75 z"
         id="path1" />
    </g>
  </g>
</svg>
